<?xml version="1.0" standalone="no"?>
<!DOCTYPE svg PUBLIC "-//W3C//DTD SVG 20010904//EN"
 "http://www.w3.org/TR/2001/REC-SVG-20010904/DTD/svg10.dtd">
<svg version="1.0" xmlns="http://www.w3.org/2000/svg"
 width="512.000000pt" height="512.000000pt" viewBox="0 0 512.000000 512.000000"
 preserveAspectRatio="xMidYMid meet">

<g transform="translate(0.000000,512.000000) scale(0.100000,-0.100000)"
fill="#000000" stroke="none">
<path d="M2125 4793 c-305 -26 -625 -110 -871 -227 -94 -45 -113 -58 -122 -83
-12 -37 2 -71 39 -92 23 -13 33 -10 149 41 160 71 245 101 383 137 427 110
867 106 1282 -14 325 -93 623 -256 884 -484 39 -34 41 -25 -39 -126 -84 -104
-129 -232 -137 -386 -16 -302 145 -564 425 -691 86 -39 177 -58 286 -58 l89 0
-6 -137 c-16 -351 -111 -646 -299 -927 -338 -506 -897 -841 -1548 -930 -312
-43 -648 -22 -945 59 -49 14 -100 25 -113 25 -12 0 -180 -79 -372 -175 -193
-96 -350 -173 -350 -170 0 3 45 123 100 266 55 143 100 274 100 290 0 34 -10
44 -126 129 -49 35 -145 118 -213 185 -305 297 -477 624 -553 1045 -8 47 -13
147 -12 265 1 164 4 207 27 316 91 437 322 809 676 1094 69 55 114 99 118 114
14 56 -32 102 -89 88 -39 -10 -173 -120 -299 -246 -479 -478 -679 -1124 -548
-1765 31 -149 83 -296 159 -451 154 -314 342 -535 673 -790 l26 -20 -131 -337
c-121 -313 -130 -340 -118 -367 7 -17 25 -35 42 -42 30 -12 46 -5 463 204
l433 216 89 -24 c501 -136 1109 -98 1596 100 839 343 1365 1081 1367 1916 l0
106 48 20 c78 33 157 89 231 164 56 57 81 93 120 173 64 130 76 184 75 331 -1
138 -23 222 -89 342 -51 90 -178 218 -270 269 -205 114 -466 120 -673 15 l-56
-29 -76 66 c-389 340 -873 543 -1410 591 -107 10 -323 12 -415 4z m2457 -736
c153 -55 262 -152 328 -289 109 -225 61 -484 -122 -658 -200 -191 -525 -202
-742 -25 -161 131 -238 351 -195 557 42 204 224 386 432 434 88 20 215 12 299
-19z"/>
<path d="M4273 3737 c-114 -114 -126 -142 -80 -185 31 -29 69 -28 106 4 l31
26 0 -164 c0 -159 1 -165 23 -186 33 -31 80 -29 106 4 20 25 21 39 21 278 0
138 -3 261 -6 274 -7 24 -50 52 -80 52 -10 0 -64 -46 -121 -103z"/>
<path d="M1304 3029 c-65 -12 -110 -34 -159 -80 -82 -76 -117 -180 -94 -287
14 -70 30 -102 77 -154 113 -126 327 -131 446 -13 118 119 129 294 26 424 -66
83 -193 130 -296 110z m144 -171 c68 -42 94 -153 49 -219 -12 -18 -38 -44 -57
-57 -29 -20 -44 -23 -93 -20 -36 3 -67 12 -85 24 -32 24 -72 98 -72 134 0 36
40 110 71 133 54 39 127 41 187 5z"/>
<path d="M2262 3029 c-295 -56 -348 -448 -79 -591 35 -19 58 -23 137 -23 109
0 152 17 220 85 61 61 83 112 88 206 4 72 1 89 -21 137 -35 76 -86 130 -154
159 -67 30 -130 39 -191 27z m143 -168 c47 -27 75 -76 75 -133 0 -98 -53 -158
-145 -166 -102 -8 -177 59 -177 157 0 131 132 206 247 142z"/>
<path d="M3229 3030 c-94 -16 -177 -76 -224 -161 -40 -74 -46 -180 -15 -262
29 -77 100 -148 175 -176 267 -100 512 157 402 422 -51 120 -202 200 -338 177z
m133 -166 c112 -57 109 -233 -6 -288 -141 -67 -287 79 -220 220 38 80 140 111
226 68z"/>
</g>
</svg>
